<?xml version="1.0" standalone="no"?>
<!DOCTYPE svg PUBLIC "-//W3C//DTD SVG 20010904//EN"
 "http://www.w3.org/TR/2001/REC-SVG-20010904/DTD/svg10.dtd">
<svg version="1.0" xmlns="http://www.w3.org/2000/svg"
 width="100.000000pt" height="100.000000pt" viewBox="0 0 100.000000 100.000000"
 preserveAspectRatio="xMidYMid meet">

<g transform="translate(0.000000,100.000000) scale(0.100000,-0.100000)"
fill="#000000" stroke="none">
<path d="M0 500 l0 -500 500 0 500 0 0 500 0 500 -500 0 -500 0 0 -500z m622
288 c59 -25 119 -89 143 -151 22 -58 17 -165 -10 -221 -79 -163 -299 -205
-432 -83 -58 53 -84 107 -91 183 -17 215 189 358 390 272z"/>
<path d="M395 779 c-200 -99 -207 -367 -13 -474 45 -26 63 -30 123 -29 191 2
311 174 249 357 -19 56 -80 122 -137 148 -58 26 -168 25 -222 -2z m9 -87 c-1
-7 -2 -33 -2 -59 -1 -25 -5 -43 -9 -40 -8 9 -22 100 -16 110 7 12 28 3 27 -11z
m101 -1 c3 -5 1 -12 -5 -16 -5 -3 -10 -18 -10 -32 0 -35 -6 -27 -14 20 -5 29
-4 37 8 37 8 0 17 -4 21 -9z m49 -33 c-8 -50 -14 -62 -14 -27 0 13 -4 31 -9
39 -12 17 -5 30 15 30 11 0 13 -9 8 -42z m79 -15 c-7 -69 -13 -82 -13 -27 0
21 -3 49 -6 62 -5 16 -2 22 9 22 13 0 15 -10 10 -57z m-271 1 c-2 -10 -3 -37
-2 -59 1 -22 -2 -36 -6 -32 -9 9 -23 100 -17 110 9 15 28 0 25 -19z m310 -49
l-6 -60 -7 60 c-6 62 -3 83 11 68 4 -4 5 -35 2 -68z m-119 1 c16 -2 37 -12 46
-20 10 -9 22 -16 27 -16 17 -1 45 -50 42 -73 -4 -28 -58 -36 -78 -13 -7 9 -9
16 -5 16 5 0 0 9 -10 20 -39 43 -123 34 -147 -17 -17 -37 -73 -46 -83 -13 -4
14 -1 28 9 39 9 10 16 21 16 26 0 5 15 21 33 36 33 29 50 31 150 15z m-33 -76
c0 -5 9 -10 20 -10 23 0 60 -68 43 -78 -6 -4 -13 -16 -15 -27 -2 -11 -10 -19
-17 -17 -7 1 -19 -2 -27 -9 -8 -6 -21 -8 -31 -3 -21 8 -29 11 -43 13 -6 0 -10
7 -9 14 1 6 -1 20 -5 30 -5 9 -5 25 0 35 4 9 8 22 8 27 1 6 11 11 24 13 12 2
22 8 22 13 0 5 7 9 15 9 8 0 15 -4 15 -10z"/>
<path d="M485 476 c-20 -15 -17 -44 7 -59 12 -8 21 -7 32 2 36 30 -1 85 -39
57z"/>
</g>
</svg>
